<?xml version="1.0" encoding="utf-8"?>
<!-- Svg Vector Icons : http://www.onlinewebfonts.com/icon -->
<!DOCTYPE svg PUBLIC "-//W3C//DTD SVG 1.1//EN" "http://www.w3.org/Graphics/SVG/1.1/DTD/svg11.dtd">
<svg version="1.1" xmlns="http://www.w3.org/2000/svg" xmlns:xlink="http://www.w3.org/1999/xlink" x="0px" y="0px" viewBox="0 0 256 256" enable-background="new 0 0 256 256" xml:space="preserve">
<metadata> Svg Vector Icons : http://www.onlinewebfonts.com/icon </metadata>
<g><g><g><path fill="#000000" d="M114.8,10.5C85.2,14.1,57,29.4,38.3,51.7c-24.4,29.2-33.5,65.8-25.4,102c3.7,16.6,12.6,34.7,23.7,48.3c25.3,30.8,64.2,47.3,102.6,43.4c21.3-2.2,41.3-10,58.6-22.8c7.1-5.3,18.8-16.8,23.8-23.4c15.1-20,23.3-42.5,24.3-66.8c1.9-44.8-23.2-87.8-63.9-109.2c-10.7-5.7-22.6-9.7-35.3-12C140.7,10.2,121.1,9.7,114.8,10.5z M139.2,21.3c21.1,2.1,41,10.4,57.3,23.7c5.2,4.2,13.3,12.8,17.4,18.2c29.3,39.3,28.2,94.8-2.7,132.8c-37,45.4-105.9,52.2-151.6,14.9c-5.8-4.7-14.7-14.2-19.2-20.4c-7.6-10.7-14.7-26.9-17.3-40.1C14.2,106.8,31.8,62.9,67.5,39C88.8,24.8,113.7,18.7,139.2,21.3z"/><path fill="#000000" d="M142.2,121.4c-17.4,23.7-31.9,43-32.1,43c-0.2,0-6.7-7-14.4-15.6c-7.7-8.5-14.2-15.6-14.5-15.6c-0.4,0-7.4,6.2-7.6,6.8c-0.2,0.6,37.4,41.9,37.8,41.5c0.2-0.2,15.8-21.3,34.5-46.9c18.8-25.5,34.8-47.2,35.5-48.2l1.3-1.8l-4.2-3.2c-2.3-1.8-4.3-3.2-4.4-3.2C174,78.4,159.6,97.7,142.2,121.4z"/></g></g></g>
</svg>